<svg xmlns="http://www.w3.org/2000/svg" version="1.1" xmlns:xlink="http://www.w3.org/1999/xlink" xmlns:svgjs="http://svgjs.dev/svgjs" width="1500" height="1447" viewBox="0 0 1500 1447"><g transform="matrix(1,0,0,1,0.4523233325534193,0.5858299595141716)"><svg viewBox="0 0 256 247" data-background-color="#efefef" preserveAspectRatio="xMidYMid meet" height="1447" width="1500" xmlns="http://www.w3.org/2000/svg" xmlns:xlink="http://www.w3.org/1999/xlink"><g id="tight-bounds" transform="matrix(1,0,0,1,-0.07719651542245742,-0.09999999999999432)"><svg viewBox="0 0 256.1543930308449 247.2" height="247.2" width="256.1543930308449"><g><svg viewBox="0 0 397.4975999999999 383.60227032361615" height="247.2" width="256.1543930308449"><g><svg viewBox="0 0 397.4975999999999 383.60227032361615" height="383.60227032361615" width="397.4975999999999"><g id="textblocktransform"><svg viewBox="0 0 397.4975999999999 383.60227032361615" height="383.60227032361615" width="397.4975999999999" id="textblock"><g><rect width="397.4975999999999" height="18.53379235346231" x="0" y="227.3506357423199" fill="#d94e28" opacity="1" stroke-width="0" stroke="transparent" fill-opacity="1" class="rect-qz-0" data-fill-palette-color="primary" rx="1%" id="qz-0" data-palette-color="#d94e28"></rect></g><g transform="matrix(1,0,0,1,0.9887999999999693,0)"><svg viewBox="0 0 395.52 205.51763427881718" height="205.51763427881718" width="395.52"><g transform="matrix(1,0,0,1,0,0)"><svg width="395.52" viewBox="4.05 -33.45 82.84 43.050000000000004" height="205.51763427881718" data-palette-color="#d94e28"><path d="M4.05 0L4.05-30.1Q8.15-31.2 12.05-31.2L12.05-31.2Q17.45-31.2 20.08-29.08 22.7-26.95 22.7-22.75L22.7-22.75Q22.7-18.2 18.65-15.75L18.65-15.75 18.65-15.5Q24.2-13.7 24.2-8.6L24.2-8.6Q24.2-5.7 23.13-3.85 22.05-2 19.43-1 16.8 0 12.2 0L12.2 0 4.05 0ZM7.15-16.9L16.95-16.9Q19.6-19.2 19.6-22.7L19.6-22.7Q19.6-25.7 17.73-27 15.85-28.3 11.9-28.3L11.9-28.3Q9.85-28.3 7.15-27.85L7.15-27.85 7.15-16.9ZM7.15-2.85L11.85-2.85Q15.5-2.85 17.53-3.45 19.55-4.05 20.33-5.25 21.1-6.45 21.1-8.45L21.1-8.45Q21.1-11 19.35-12.53 17.6-14.05 14.2-14.05L14.2-14.05 7.15-14.05 7.15-2.85ZM34.2 0.35Q33-0.1 31.72-1.4 30.45-2.7 30.45-3.8L30.45-3.8 30.45-33.45 33.4-33.45 33.4-4.3Q33.4-3.5 33.47-3.08 33.55-2.65 33.8-2.2L33.8-2.2 34.5-2.2 37.6-3.7 38.9-2.05Q38.1-1.1 36.85-0.45 35.6 0.2 34.2 0.35L34.2 0.35ZM52.25 0.45Q47.4 0.45 45.15-2.68 42.9-5.8 42.9-11.45L42.9-11.45Q42.9-17.35 45.3-20.68 47.7-24 53.4-24L53.4-24Q58.2-24 60.47-20.78 62.75-17.55 62.75-11.85L62.75-11.85Q62.75-6 60.35-2.78 57.95 0.45 52.25 0.45L52.25 0.45ZM53.1-2.2Q56.1-2.2 58.2-3.25L58.2-3.25Q59.75-6 59.75-11.25L59.75-11.25Q59.75-16.55 58.17-18.93 56.59-21.3 52.55-21.3L52.55-21.3Q49.4-21.3 47.45-20.25L47.45-20.25Q46.75-18.95 46.32-16.78 45.9-14.6 45.9-12L45.9-12Q45.9-8.5 46.55-6.38 47.2-4.25 48.77-3.23 50.35-2.2 53.1-2.2L53.1-2.2ZM77.79 9.6Q75.44 9.6 73.34 9.1 71.24 8.6 69.79 7.75L69.79 7.75 70.69 5.4Q72.14 6.1 73.97 6.5 75.79 6.9 77.54 6.9L77.54 6.9Q79.74 6.9 81.27 6.6 82.79 6.3 83.99 5.6L83.99 5.6 83.99-0.75 84.14-3.9 83.79-3.9Q80.54-0.2 76.54-0.2L76.54-0.2Q72.24-0.2 70.27-3.28 68.29-6.35 68.29-11.3L68.29-11.3Q68.29-17.25 70.32-20.53 72.34-23.8 77.09-23.8L77.09-23.8Q81.44-23.8 83.79-19.8L83.79-19.8 84.09-19.8 84.34-23.45 86.89-23.45 86.89 2.8Q86.89 6.25 84.44 7.93 81.99 9.6 77.79 9.6L77.79 9.6ZM77.19-2.8Q81.09-2.8 83.89-6.45L83.89-6.45 83.89-17.45Q81.09-21.2 77.34-21.2L77.34-21.2Q73.99-21.2 72.67-18.82 71.34-16.45 71.34-11.6L71.34-11.6Q71.34-7.15 72.77-4.98 74.19-2.8 77.19-2.8L77.19-2.8Z" opacity="1" transform="matrix(1,0,0,1,0,0)" fill="#d94e28" class="wordmark-text-0" data-fill-palette-color="primary" id="text-0"></path></svg></g></svg></g><g transform="matrix(1,0,0,1,0,267.71742955928494)"><svg viewBox="0 0 395.52 115.8848407643312" height="115.8848407643312" width="395.52"><g transform="matrix(1,0,0,1,0,0)"><svg width="395.52" viewBox="-2.45 -37.6 172.67999999999998 50.6" height="115.8848407643312" data-palette-color="#d94e28"><path d="M6.45-30.05Q5.55-30.05 5-30.6L5-30.6Q4.35-31.25 4.35-32.2L4.35-32.2Q4.35-33.15 5-33.8L5-33.8Q5.55-34.35 6.45-34.35L6.45-34.35Q7.4-34.35 7.95-33.85L7.95-33.85Q8.55-33.2 8.55-32.2L8.55-32.2Q8.55-31.3 7.95-30.6L7.95-30.6Q7.25-30.05 6.45-30.05L6.45-30.05ZM1.2 13Q0 13-0.8 12.75-1.6 12.5-1.98 12.25-2.35 12-2.45 11.9L-2.45 11.9-1.75 9.85Q-1.7 9.9-1.38 10.1-1.05 10.3-0.5 10.48 0.05 10.65 0.75 10.65L0.75 10.65Q2.7 10.65 3.65 8.65 4.6 6.65 4.6 2.05L4.6 2.05 4.6-25 8.25-25 8.25 2.05Q8.25 13 1.2 13L1.2 13ZM23.05 0.5Q19.4 0.5 17.4-1.53 15.4-3.55 15.4-7.55L15.4-7.55 15.4-25 19.05-25 19.05-8.3Q19.05-2.15 24.25-2.15L24.25-2.15Q26.05-2.15 27.35-2.73 28.65-3.3 29.42-3.95 30.2-4.6 30.2-4.7L30.2-4.7 30.2-25 33.85-25 33.85 0 30.8 0 30.3-2.4Q29.65-1.5 27.9-0.5 26.15 0.5 23.05 0.5L23.05 0.5ZM47.55 0.5Q44.9 0.5 43.07-0.33 41.25-1.15 40.32-2.1 39.4-3.05 39.4-3.2L39.4-3.2 40.65-4.95Q40.65-4.85 41.45-4 42.25-3.15 43.65-2.43 45.05-1.7 46.95-1.7L46.95-1.7Q49.75-1.7 51.17-3.1 52.6-4.5 52.6-6.5L52.6-6.5Q52.6-7.95 51.87-8.9 51.15-9.85 50.07-10.38 49-10.9 47.1-11.55L47.1-11.55Q44.9-12.35 43.6-13.03 42.3-13.7 41.37-15.05 40.45-16.4 40.45-18.55L40.45-18.55Q40.45-21.75 42.77-23.63 45.1-25.5 48.75-25.5L48.75-25.5Q50.35-25.5 51.82-25.08 53.3-24.65 54.2-24.18 55.1-23.7 55.35-23.55L55.35-23.55 54.75-21.4Q54.55-21.55 53.75-22.03 52.95-22.5 51.67-22.95 50.4-23.4 49.05-23.4L49.05-23.4Q46.75-23.4 45.32-22.25 43.9-21.1 43.9-19.35L43.9-19.35Q43.9-17.9 44.65-16.93 45.4-15.95 46.52-15.4 47.65-14.85 49.55-14.15L49.55-14.15Q51.75-13.4 53.12-12.68 54.5-11.95 55.45-10.6 56.4-9.25 56.4-7.1L56.4-7.1Q56.4-3.85 54.15-1.68 51.9 0.5 47.55 0.5L47.55 0.5ZM67.89 0.5Q65.19 0.5 63.89-1.18 62.59-2.85 62.59-6.7L62.59-6.7 62.59-22.55 59.99-22.55 59.99-24.65 62.59-24.95 63.94-32.9 66.24-32.9 66.24-25 72.64-25 72.64-22.55 66.24-22.55 66.24-7.6Q66.24-4.35 66.87-3.13 67.49-1.9 69.04-1.9L69.04-1.9Q70.29-1.9 71.29-2.15 72.29-2.4 72.29-2.45L72.29-2.45 72.54-0.45Q72.44-0.35 71.92-0.13 71.39 0.1 70.37 0.3 69.34 0.5 67.89 0.5L67.89 0.5ZM99.59 0.55Q96.99 0.55 95.39-0.28 93.79-1.1 92.99-1.95L92.99-1.95 92.29 0 89.69 0 89.69-37.4 93.34-37.6 93.34-22.15 93.39-22.15Q93.39-22.3 94.11-23.18 94.84-24.05 96.31-24.8 97.79-25.55 100.04-25.55L100.04-25.55Q104.49-25.55 107.19-22.28 109.89-19 109.89-13.2L109.89-13.2Q109.89-6.9 107.24-3.18 104.59 0.55 99.59 0.55L99.59 0.55ZM98.64-1.85Q102.49-1.85 104.26-4.67 106.04-7.5 106.04-13.1L106.04-13.1Q106.04-18.3 104.24-20.73 102.44-23.15 98.99-23.15L98.99-23.15Q96.49-23.15 95.14-21.85 93.79-20.55 93.34-19.55L93.34-19.55 93.34-4.1Q93.69-3.45 95.04-2.65 96.39-1.85 98.64-1.85L98.64-1.85ZM119.09 0L115.49 0 115.49-37.4 119.09-37.6 119.09 0ZM135.38 0.5Q130.18 0.5 127.46-2.9 124.73-6.3 124.73-12.5L124.73-12.5Q124.73-18.7 127.46-22.1 130.18-25.5 135.38-25.5L135.38-25.5Q140.58-25.5 143.31-22.1 146.03-18.7 146.03-12.5L146.03-12.5Q146.03-6.35 143.26-2.93 140.48 0.5 135.38 0.5L135.38 0.5ZM135.38-1.7Q138.88-1.7 140.53-4.38 142.18-7.05 142.18-12.5L142.18-12.5Q142.18-17.9 140.53-20.6 138.88-23.3 135.38-23.3L135.38-23.3Q131.88-23.3 130.23-20.63 128.58-17.95 128.58-12.5L128.58-12.5Q128.58-7.05 130.23-4.38 131.88-1.7 135.38-1.7L135.38-1.7ZM159.73 13Q154.43 13 151.68 10.93 148.93 8.85 148.93 4.85L148.93 4.85Q148.93 2.25 150.11 0.65 151.28-0.95 153.08-1.7L153.08-1.7Q152.18-2.75 152.18-4.65L152.18-4.65Q152.18-7.1 154.48-8.85L154.48-8.85Q152.48-9.9 151.38-11.88 150.28-13.85 150.28-16.65L150.28-16.65Q150.28-21.2 152.86-23.35 155.43-25.5 159.48-25.5L159.48-25.5Q161.43-25.5 162.93-25L162.93-25 169.38-24.95 169.38-23 166.18-22.9Q168.18-20.65 168.18-16.65L168.18-16.65Q168.18-12.35 165.86-10.05 163.53-7.75 159.43-7.75L159.43-7.75Q157.73-7.75 156.38-8.1L156.38-8.1Q154.63-6.95 154.63-5.5L154.63-5.5Q154.63-4.15 155.73-3.63 156.83-3.1 159.28-3.1L159.28-3.1Q170.23-3.1 170.23 4.6L170.23 4.6Q170.23 8.7 167.51 10.85 164.78 13 159.73 13L159.73 13ZM159.33-9.75Q164.63-9.75 164.63-16.7L164.63-16.7Q164.63-20.3 163.23-21.83 161.83-23.35 159.28-23.35L159.28-23.35Q156.73-23.35 155.26-21.85 153.78-20.35 153.78-16.65L153.78-16.65Q153.78-13.25 155.23-11.5 156.68-9.75 159.33-9.75L159.33-9.75ZM159.73 10.75Q163.23 10.75 165.13 9.33 167.03 7.9 167.03 5.2L167.03 5.2Q167.03-0.05 158.88-0.05L158.88-0.05Q156.53-0.05 155.13-0.45L155.13-0.45Q153.63 0.15 152.71 1.48 151.78 2.8 151.78 4.8L151.78 4.8Q151.78 7.8 153.86 9.28 155.93 10.75 159.73 10.75L159.73 10.75Z" opacity="1" transform="matrix(1,0,0,1,0,0)" fill="#d94e28" class="slogan-text-1" data-fill-palette-color="secondary" id="text-1"></path></svg></g></svg></g></svg></g></svg></g></svg></g><defs></defs></svg><rect width="256.1543930308449" height="247.2" fill="none" stroke="none" visibility="hidden"></rect></g></svg></g></svg>